<mxfile host="Electron" modified="2024-04-01T15:20:22.708Z" agent="Mozilla/5.0 (Windows NT 10.0; Win64; x64) AppleWebKit/537.36 (KHTML, like Gecko) draw.io/24.0.4 Chrome/120.0.6099.109 Electron/28.1.0 Safari/537.36" etag="jRKSNMmmyzE9Sw5aZvM9" version="24.0.4" type="device">
  <diagram name="Page-1" id="X4RA0sWJOlGw3QUm6S05">
    <mxGraphModel dx="1793" dy="2145" grid="1" gridSize="10" guides="1" tooltips="1" connect="1" arrows="1" fold="1" page="1" pageScale="1" pageWidth="850" pageHeight="1100" math="0" shadow="0">
      <root>
        <mxCell id="0" />
        <mxCell id="1" parent="0" />
        <mxCell id="fBPDrE-IPzC1A-cnoaCC-7" value="" style="endArrow=block;endSize=16;endFill=0;html=1;rounded=0;entryX=0;entryY=0.5;entryDx=0;entryDy=0;exitX=0.5;exitY=0;exitDx=0;exitDy=0;" parent="1" source="C_XxnrYp36uwVZH10fxI-17" target="9LugDYmZEyyhnsHwceRd-7" edge="1">
          <mxGeometry width="160" relative="1" as="geometry">
            <mxPoint x="970" y="440" as="sourcePoint" />
            <mxPoint x="1040" y="415" as="targetPoint" />
            <Array as="points">
              <mxPoint x="980" y="405" />
            </Array>
          </mxGeometry>
        </mxCell>
        <mxCell id="fBPDrE-IPzC1A-cnoaCC-8" value="Remota" style="html=1;whiteSpace=wrap;" parent="1" vertex="1">
          <mxGeometry x="1210" y="465" width="100" height="50" as="geometry" />
        </mxCell>
        <mxCell id="fBPDrE-IPzC1A-cnoaCC-9" value="" style="endArrow=block;endSize=16;endFill=0;html=1;rounded=0;exitX=0.5;exitY=0;exitDx=0;exitDy=0;entryX=1;entryY=0.5;entryDx=0;entryDy=0;" parent="1" source="fBPDrE-IPzC1A-cnoaCC-8" target="9LugDYmZEyyhnsHwceRd-7" edge="1">
          <mxGeometry width="160" relative="1" as="geometry">
            <mxPoint x="1220" y="470" as="sourcePoint" />
            <mxPoint x="1190" y="380" as="targetPoint" />
            <Array as="points">
              <mxPoint x="1260" y="405" />
            </Array>
          </mxGeometry>
        </mxCell>
        <mxCell id="JnHYzQc8gZoaptGCAMhL-2" value="Júri" style="html=1;whiteSpace=wrap;" parent="1" vertex="1">
          <mxGeometry x="1440.1399999999999" y="335" width="100" height="50" as="geometry" />
        </mxCell>
        <mxCell id="JnHYzQc8gZoaptGCAMhL-15" value="Docente (Arguente)" style="html=1;whiteSpace=wrap;dashed=1;" parent="1" vertex="1">
          <mxGeometry x="1650.1399999999999" y="415" width="100" height="50" as="geometry" />
        </mxCell>
        <mxCell id="JnHYzQc8gZoaptGCAMhL-17" value="Docente (Orientador Interno)" style="html=1;whiteSpace=wrap;dashed=1;" parent="1" vertex="1">
          <mxGeometry x="1650.1399999999999" y="335" width="100" height="50" as="geometry" />
        </mxCell>
        <mxCell id="JnHYzQc8gZoaptGCAMhL-21" value="Presidente" style="html=1;whiteSpace=wrap;" parent="1" vertex="1">
          <mxGeometry x="1650.1399999999999" y="255" width="100" height="50" as="geometry" />
        </mxCell>
        <mxCell id="fVaLRAdeRfdy9NQS7Hun-14" value="Catálogo de Salas" style="whiteSpace=wrap;html=1;" parent="1" vertex="1">
          <mxGeometry x="710" y="455" width="120" height="60" as="geometry" />
        </mxCell>
        <mxCell id="9LugDYmZEyyhnsHwceRd-2" value="Proposta de Tese" style="whiteSpace=wrap;html=1;" parent="1" vertex="1">
          <mxGeometry x="1060" y="200" width="120" height="60" as="geometry" />
        </mxCell>
        <mxCell id="9LugDYmZEyyhnsHwceRd-4" value="" style="endArrow=none;html=1;rounded=0;entryX=0.5;entryY=1;entryDx=0;entryDy=0;exitX=0.5;exitY=0;exitDx=0;exitDy=0;" parent="1" target="9LugDYmZEyyhnsHwceRd-2" edge="1">
          <mxGeometry width="50" height="50" relative="1" as="geometry">
            <mxPoint x="1120" y="340" as="sourcePoint" />
            <mxPoint x="990" y="300" as="targetPoint" />
          </mxGeometry>
        </mxCell>
        <mxCell id="9LugDYmZEyyhnsHwceRd-29" value="1" style="edgeLabel;html=1;align=center;verticalAlign=middle;resizable=0;points=[];" parent="9LugDYmZEyyhnsHwceRd-4" vertex="1" connectable="0">
          <mxGeometry x="-0.398" y="-2" relative="1" as="geometry">
            <mxPoint x="13" y="4" as="offset" />
          </mxGeometry>
        </mxCell>
        <mxCell id="C_XxnrYp36uwVZH10fxI-3" value="1" style="edgeLabel;html=1;align=center;verticalAlign=middle;resizable=0;points=[];" parent="9LugDYmZEyyhnsHwceRd-4" vertex="1" connectable="0">
          <mxGeometry x="0.75" y="-3" relative="1" as="geometry">
            <mxPoint x="7" as="offset" />
          </mxGeometry>
        </mxCell>
        <mxCell id="9LugDYmZEyyhnsHwceRd-6" value="Defesa" style="swimlane;fontStyle=0;childLayout=stackLayout;horizontal=1;startSize=30;horizontalStack=0;resizeParent=1;resizeParentMax=0;resizeLast=0;collapsible=1;marginBottom=0;whiteSpace=wrap;html=1;" parent="1" vertex="1">
          <mxGeometry x="1050" y="330" width="140" height="120" as="geometry" />
        </mxCell>
        <mxCell id="C_XxnrYp36uwVZH10fxI-14" value="data" style="text;strokeColor=none;fillColor=none;align=left;verticalAlign=middle;spacingLeft=4;spacingRight=4;overflow=hidden;points=[[0,0.5],[1,0.5]];portConstraint=eastwest;rotatable=0;whiteSpace=wrap;html=1;" parent="9LugDYmZEyyhnsHwceRd-6" vertex="1">
          <mxGeometry y="30" width="140" height="30" as="geometry" />
        </mxCell>
        <mxCell id="9LugDYmZEyyhnsHwceRd-7" value="duracao" style="text;strokeColor=none;fillColor=none;align=left;verticalAlign=middle;spacingLeft=4;spacingRight=4;overflow=hidden;points=[[0,0.5],[1,0.5]];portConstraint=eastwest;rotatable=0;whiteSpace=wrap;html=1;" parent="9LugDYmZEyyhnsHwceRd-6" vertex="1">
          <mxGeometry y="60" width="140" height="30" as="geometry" />
        </mxCell>
        <mxCell id="9LugDYmZEyyhnsHwceRd-10" value="nota" style="text;strokeColor=none;fillColor=none;align=left;verticalAlign=middle;spacingLeft=4;spacingRight=4;overflow=hidden;points=[[0,0.5],[1,0.5]];portConstraint=eastwest;rotatable=0;whiteSpace=wrap;html=1;" parent="9LugDYmZEyyhnsHwceRd-6" vertex="1">
          <mxGeometry y="90" width="140" height="30" as="geometry" />
        </mxCell>
        <mxCell id="9LugDYmZEyyhnsHwceRd-11" value="" style="endArrow=none;html=1;rounded=0;exitX=1;exitY=0.25;exitDx=0;exitDy=0;entryX=0;entryY=0.5;entryDx=0;entryDy=0;" parent="1" source="JnHYzQc8gZoaptGCAMhL-2" target="JnHYzQc8gZoaptGCAMhL-21" edge="1">
          <mxGeometry width="50" height="50" relative="1" as="geometry">
            <mxPoint x="1540.1399999999999" y="265" as="sourcePoint" />
            <mxPoint x="1590.1399999999999" y="215" as="targetPoint" />
            <Array as="points">
              <mxPoint x="1610.1399999999999" y="348" />
              <mxPoint x="1610.1399999999999" y="280" />
            </Array>
          </mxGeometry>
        </mxCell>
        <mxCell id="9LugDYmZEyyhnsHwceRd-14" value="0..1" style="edgeLabel;html=1;align=center;verticalAlign=middle;resizable=0;points=[];" parent="9LugDYmZEyyhnsHwceRd-11" vertex="1" connectable="0">
          <mxGeometry x="0.8438" y="2" relative="1" as="geometry">
            <mxPoint y="-13" as="offset" />
          </mxGeometry>
        </mxCell>
        <mxCell id="9LugDYmZEyyhnsHwceRd-18" value="*" style="edgeLabel;html=1;align=center;verticalAlign=middle;resizable=0;points=[];" parent="9LugDYmZEyyhnsHwceRd-11" vertex="1" connectable="0">
          <mxGeometry x="-0.8497" y="2" relative="1" as="geometry">
            <mxPoint y="-11" as="offset" />
          </mxGeometry>
        </mxCell>
        <mxCell id="9LugDYmZEyyhnsHwceRd-12" value="" style="endArrow=none;html=1;rounded=0;exitX=1;exitY=0.5;exitDx=0;exitDy=0;entryX=0;entryY=0.5;entryDx=0;entryDy=0;" parent="1" source="JnHYzQc8gZoaptGCAMhL-2" target="JnHYzQc8gZoaptGCAMhL-17" edge="1">
          <mxGeometry width="50" height="50" relative="1" as="geometry">
            <mxPoint x="1600.1399999999999" y="465" as="sourcePoint" />
            <mxPoint x="1650.1399999999999" y="415" as="targetPoint" />
          </mxGeometry>
        </mxCell>
        <mxCell id="9LugDYmZEyyhnsHwceRd-15" value="1" style="edgeLabel;html=1;align=center;verticalAlign=middle;resizable=0;points=[];" parent="9LugDYmZEyyhnsHwceRd-12" vertex="1" connectable="0">
          <mxGeometry x="0.4712" y="-2" relative="1" as="geometry">
            <mxPoint x="13" y="-17" as="offset" />
          </mxGeometry>
        </mxCell>
        <mxCell id="9LugDYmZEyyhnsHwceRd-20" value="*" style="edgeLabel;html=1;align=center;verticalAlign=middle;resizable=0;points=[];" parent="9LugDYmZEyyhnsHwceRd-12" vertex="1" connectable="0">
          <mxGeometry x="-0.6683" y="2" relative="1" as="geometry">
            <mxPoint x="-3" as="offset" />
          </mxGeometry>
        </mxCell>
        <mxCell id="9LugDYmZEyyhnsHwceRd-13" value="" style="endArrow=none;html=1;rounded=0;exitX=1;exitY=0.75;exitDx=0;exitDy=0;entryX=0;entryY=0.5;entryDx=0;entryDy=0;" parent="1" source="JnHYzQc8gZoaptGCAMhL-2" target="JnHYzQc8gZoaptGCAMhL-15" edge="1">
          <mxGeometry width="50" height="50" relative="1" as="geometry">
            <mxPoint x="1580.1399999999999" y="465" as="sourcePoint" />
            <mxPoint x="1630.1399999999999" y="415" as="targetPoint" />
            <Array as="points">
              <mxPoint x="1610.1399999999999" y="373" />
              <mxPoint x="1610.1399999999999" y="440" />
            </Array>
          </mxGeometry>
        </mxCell>
        <mxCell id="9LugDYmZEyyhnsHwceRd-16" value="1" style="edgeLabel;html=1;align=center;verticalAlign=middle;resizable=0;points=[];" parent="9LugDYmZEyyhnsHwceRd-13" vertex="1" connectable="0">
          <mxGeometry x="0.8772" y="-1" relative="1" as="geometry">
            <mxPoint y="-16" as="offset" />
          </mxGeometry>
        </mxCell>
        <mxCell id="9LugDYmZEyyhnsHwceRd-19" value="*" style="edgeLabel;html=1;align=center;verticalAlign=middle;resizable=0;points=[];" parent="9LugDYmZEyyhnsHwceRd-13" vertex="1" connectable="0">
          <mxGeometry x="-0.842" y="3" relative="1" as="geometry">
            <mxPoint x="1" y="15" as="offset" />
          </mxGeometry>
        </mxCell>
        <mxCell id="9LugDYmZEyyhnsHwceRd-22" value="" style="endArrow=none;html=1;rounded=0;exitX=1;exitY=0.25;exitDx=0;exitDy=0;entryX=0;entryY=0.5;entryDx=0;entryDy=0;" parent="1" source="9LugDYmZEyyhnsHwceRd-6" target="JnHYzQc8gZoaptGCAMhL-2" edge="1">
          <mxGeometry width="50" height="50" relative="1" as="geometry">
            <mxPoint x="1340" y="380" as="sourcePoint" />
            <mxPoint x="1490" y="360" as="targetPoint" />
          </mxGeometry>
        </mxCell>
        <mxCell id="9LugDYmZEyyhnsHwceRd-23" value="avalia" style="edgeLabel;html=1;align=center;verticalAlign=middle;resizable=0;points=[];" parent="9LugDYmZEyyhnsHwceRd-22" vertex="1" connectable="0">
          <mxGeometry x="-0.1332" y="-1" relative="1" as="geometry">
            <mxPoint x="8" y="-12" as="offset" />
          </mxGeometry>
        </mxCell>
        <mxCell id="9LugDYmZEyyhnsHwceRd-24" value="1" style="edgeLabel;html=1;align=center;verticalAlign=middle;resizable=0;points=[];" parent="9LugDYmZEyyhnsHwceRd-22" vertex="1" connectable="0">
          <mxGeometry x="0.7886" y="1" relative="1" as="geometry">
            <mxPoint x="17" y="-9" as="offset" />
          </mxGeometry>
        </mxCell>
        <mxCell id="9LugDYmZEyyhnsHwceRd-25" value="1..*" style="edgeLabel;html=1;align=center;verticalAlign=middle;resizable=0;points=[];" parent="9LugDYmZEyyhnsHwceRd-22" vertex="1" connectable="0">
          <mxGeometry x="-0.7417" y="-2" relative="1" as="geometry">
            <mxPoint x="-15" y="-14" as="offset" />
          </mxGeometry>
        </mxCell>
        <mxCell id="9LugDYmZEyyhnsHwceRd-26" value="Aluno" style="whiteSpace=wrap;html=1;dashed=1;" parent="1" vertex="1">
          <mxGeometry x="1060" y="60" width="120" height="60" as="geometry" />
        </mxCell>
        <mxCell id="9LugDYmZEyyhnsHwceRd-27" value="" style="endArrow=none;html=1;rounded=0;entryX=0.5;entryY=1;entryDx=0;entryDy=0;exitX=0.5;exitY=0;exitDx=0;exitDy=0;" parent="1" source="9LugDYmZEyyhnsHwceRd-2" target="9LugDYmZEyyhnsHwceRd-26" edge="1">
          <mxGeometry width="50" height="50" relative="1" as="geometry">
            <mxPoint x="1080" y="190" as="sourcePoint" />
            <mxPoint x="1130" y="140" as="targetPoint" />
          </mxGeometry>
        </mxCell>
        <mxCell id="9LugDYmZEyyhnsHwceRd-28" value="*" style="edgeLabel;html=1;align=center;verticalAlign=middle;resizable=0;points=[];" parent="9LugDYmZEyyhnsHwceRd-27" vertex="1" connectable="0">
          <mxGeometry x="-0.4663" y="-5" relative="1" as="geometry">
            <mxPoint x="5" y="11" as="offset" />
          </mxGeometry>
        </mxCell>
        <mxCell id="9LugDYmZEyyhnsHwceRd-30" value="Documento Final" style="whiteSpace=wrap;html=1;" parent="1" vertex="1">
          <mxGeometry x="830" y="200" width="120" height="60" as="geometry" />
        </mxCell>
        <mxCell id="9LugDYmZEyyhnsHwceRd-34" value="" style="endArrow=none;html=1;rounded=0;exitX=1;exitY=0.5;exitDx=0;exitDy=0;entryX=0;entryY=0.5;entryDx=0;entryDy=0;" parent="1" source="9LugDYmZEyyhnsHwceRd-30" target="9LugDYmZEyyhnsHwceRd-2" edge="1">
          <mxGeometry width="50" height="50" relative="1" as="geometry">
            <mxPoint x="980" y="340" as="sourcePoint" />
            <mxPoint x="1030" y="290" as="targetPoint" />
          </mxGeometry>
        </mxCell>
        <mxCell id="C_XxnrYp36uwVZH10fxI-1" value="1" style="edgeLabel;html=1;align=center;verticalAlign=middle;resizable=0;points=[];" parent="9LugDYmZEyyhnsHwceRd-34" vertex="1" connectable="0">
          <mxGeometry x="-0.7107" relative="1" as="geometry">
            <mxPoint y="-10" as="offset" />
          </mxGeometry>
        </mxCell>
        <mxCell id="C_XxnrYp36uwVZH10fxI-2" value="1" style="edgeLabel;html=1;align=center;verticalAlign=middle;resizable=0;points=[];" parent="9LugDYmZEyyhnsHwceRd-34" vertex="1" connectable="0">
          <mxGeometry x="0.6686" y="1" relative="1" as="geometry">
            <mxPoint y="-9" as="offset" />
          </mxGeometry>
        </mxCell>
        <mxCell id="C_XxnrYp36uwVZH10fxI-5" value="" style="endArrow=none;html=1;rounded=0;entryX=0.5;entryY=1;entryDx=0;entryDy=0;exitX=0.25;exitY=0;exitDx=0;exitDy=0;" parent="1" source="9LugDYmZEyyhnsHwceRd-6" target="9LugDYmZEyyhnsHwceRd-30" edge="1">
          <mxGeometry width="50" height="50" relative="1" as="geometry">
            <mxPoint x="870" y="370" as="sourcePoint" />
            <mxPoint x="920" y="320" as="targetPoint" />
            <Array as="points">
              <mxPoint x="1085" y="310" />
              <mxPoint x="890" y="310" />
            </Array>
          </mxGeometry>
        </mxCell>
        <mxCell id="C_XxnrYp36uwVZH10fxI-6" value="1" style="edgeLabel;html=1;align=center;verticalAlign=middle;resizable=0;points=[];" parent="C_XxnrYp36uwVZH10fxI-5" vertex="1" connectable="0">
          <mxGeometry x="-0.9235" y="1" relative="1" as="geometry">
            <mxPoint x="-14" as="offset" />
          </mxGeometry>
        </mxCell>
        <mxCell id="C_XxnrYp36uwVZH10fxI-7" value="1" style="edgeLabel;html=1;align=center;verticalAlign=middle;resizable=0;points=[];" parent="C_XxnrYp36uwVZH10fxI-5" vertex="1" connectable="0">
          <mxGeometry x="0.8678" y="4" relative="1" as="geometry">
            <mxPoint x="14" as="offset" />
          </mxGeometry>
        </mxCell>
        <mxCell id="C_XxnrYp36uwVZH10fxI-10" value="Sala" style="swimlane;fontStyle=0;childLayout=stackLayout;horizontal=1;startSize=30;horizontalStack=0;resizeParent=1;resizeParentMax=0;resizeLast=0;collapsible=1;marginBottom=0;whiteSpace=wrap;html=1;" parent="1" vertex="1">
          <mxGeometry x="700" y="295" width="140" height="90" as="geometry" />
        </mxCell>
        <mxCell id="C_XxnrYp36uwVZH10fxI-11" value="horarios" style="text;strokeColor=none;fillColor=none;align=left;verticalAlign=middle;spacingLeft=4;spacingRight=4;overflow=hidden;points=[[0,0.5],[1,0.5]];portConstraint=eastwest;rotatable=0;whiteSpace=wrap;html=1;" parent="C_XxnrYp36uwVZH10fxI-10" vertex="1">
          <mxGeometry y="30" width="140" height="30" as="geometry" />
        </mxCell>
        <mxCell id="C_XxnrYp36uwVZH10fxI-12" value="numero" style="text;strokeColor=none;fillColor=none;align=left;verticalAlign=middle;spacingLeft=4;spacingRight=4;overflow=hidden;points=[[0,0.5],[1,0.5]];portConstraint=eastwest;rotatable=0;whiteSpace=wrap;html=1;" parent="C_XxnrYp36uwVZH10fxI-10" vertex="1">
          <mxGeometry y="60" width="140" height="30" as="geometry" />
        </mxCell>
        <mxCell id="C_XxnrYp36uwVZH10fxI-16" value="" style="endArrow=none;html=1;rounded=0;exitX=0.5;exitY=0;exitDx=0;exitDy=0;" parent="1" source="fVaLRAdeRfdy9NQS7Hun-14" target="C_XxnrYp36uwVZH10fxI-12" edge="1">
          <mxGeometry width="50" height="50" relative="1" as="geometry">
            <mxPoint x="880" y="450" as="sourcePoint" />
            <mxPoint x="930" y="400" as="targetPoint" />
          </mxGeometry>
        </mxCell>
        <mxCell id="C_XxnrYp36uwVZH10fxI-24" value="1" style="edgeLabel;html=1;align=center;verticalAlign=middle;resizable=0;points=[];" parent="C_XxnrYp36uwVZH10fxI-16" vertex="1" connectable="0">
          <mxGeometry x="-0.0305" y="1" relative="1" as="geometry">
            <mxPoint x="11" y="19" as="offset" />
          </mxGeometry>
        </mxCell>
        <mxCell id="C_XxnrYp36uwVZH10fxI-25" value="*" style="edgeLabel;html=1;align=center;verticalAlign=middle;resizable=0;points=[];" parent="C_XxnrYp36uwVZH10fxI-16" vertex="1" connectable="0">
          <mxGeometry x="0.7314" y="2" relative="1" as="geometry">
            <mxPoint x="12" y="6" as="offset" />
          </mxGeometry>
        </mxCell>
        <mxCell id="C_XxnrYp36uwVZH10fxI-17" value="Presencial" style="html=1;whiteSpace=wrap;" parent="1" vertex="1">
          <mxGeometry x="930" y="460" width="100" height="50" as="geometry" />
        </mxCell>
        <mxCell id="C_XxnrYp36uwVZH10fxI-18" value="" style="endArrow=none;html=1;rounded=0;exitX=1;exitY=0.5;exitDx=0;exitDy=0;entryX=0;entryY=0.5;entryDx=0;entryDy=0;" parent="1" source="C_XxnrYp36uwVZH10fxI-11" target="C_XxnrYp36uwVZH10fxI-17" edge="1">
          <mxGeometry width="50" height="50" relative="1" as="geometry">
            <mxPoint x="870" y="520" as="sourcePoint" />
            <mxPoint x="920" y="470" as="targetPoint" />
            <Array as="points">
              <mxPoint x="890" y="340" />
              <mxPoint x="890" y="485" />
            </Array>
          </mxGeometry>
        </mxCell>
        <mxCell id="C_XxnrYp36uwVZH10fxI-21" value="1" style="edgeLabel;html=1;align=center;verticalAlign=middle;resizable=0;points=[];" parent="C_XxnrYp36uwVZH10fxI-18" vertex="1" connectable="0">
          <mxGeometry x="-0.905" y="1" relative="1" as="geometry">
            <mxPoint x="-1" y="-9" as="offset" />
          </mxGeometry>
        </mxCell>
        <mxCell id="C_XxnrYp36uwVZH10fxI-22" value="*" style="edgeLabel;html=1;align=center;verticalAlign=middle;resizable=0;points=[];" parent="C_XxnrYp36uwVZH10fxI-18" vertex="1" connectable="0">
          <mxGeometry x="0.7475" y="1" relative="1" as="geometry">
            <mxPoint x="12" y="-14" as="offset" />
          </mxGeometry>
        </mxCell>
        <mxCell id="C_XxnrYp36uwVZH10fxI-19" value="Processo" style="whiteSpace=wrap;html=1;dashed=1;" parent="1" vertex="1">
          <mxGeometry x="710" y="590" width="120" height="60" as="geometry" />
        </mxCell>
        <mxCell id="C_XxnrYp36uwVZH10fxI-20" value="" style="endArrow=none;html=1;rounded=0;exitX=0.5;exitY=0;exitDx=0;exitDy=0;entryX=0.5;entryY=1;entryDx=0;entryDy=0;" parent="1" source="C_XxnrYp36uwVZH10fxI-19" target="fVaLRAdeRfdy9NQS7Hun-14" edge="1">
          <mxGeometry width="50" height="50" relative="1" as="geometry">
            <mxPoint x="860" y="630" as="sourcePoint" />
            <mxPoint x="910" y="580" as="targetPoint" />
          </mxGeometry>
        </mxCell>
        <mxCell id="C_XxnrYp36uwVZH10fxI-26" value="1" style="edgeLabel;html=1;align=center;verticalAlign=middle;resizable=0;points=[];" parent="C_XxnrYp36uwVZH10fxI-20" vertex="1" connectable="0">
          <mxGeometry x="0.7884" y="3" relative="1" as="geometry">
            <mxPoint x="13" y="7" as="offset" />
          </mxGeometry>
        </mxCell>
        <mxCell id="C_XxnrYp36uwVZH10fxI-27" value="1" style="edgeLabel;html=1;align=center;verticalAlign=middle;resizable=0;points=[];" parent="C_XxnrYp36uwVZH10fxI-20" vertex="1" connectable="0">
          <mxGeometry x="-0.5627" y="-2" relative="1" as="geometry">
            <mxPoint x="8" as="offset" />
          </mxGeometry>
        </mxCell>
        <mxCell id="aRIGUOi0fo8cgqzadP1p-1" value="ThesisMan" style="swimlane;fontStyle=0;childLayout=stackLayout;horizontal=1;startSize=30;horizontalStack=0;resizeParent=1;resizeParentMax=0;resizeLast=0;collapsible=1;marginBottom=0;whiteSpace=wrap;html=1;" parent="1" vertex="1">
          <mxGeometry x="1186.25" y="-950" width="140" height="60" as="geometry" />
        </mxCell>
        <mxCell id="aRIGUOi0fo8cgqzadP1p-2" value="Ano letivo" style="text;strokeColor=none;fillColor=none;align=left;verticalAlign=middle;spacingLeft=4;spacingRight=4;overflow=hidden;points=[[0,0.5],[1,0.5]];portConstraint=eastwest;rotatable=0;whiteSpace=wrap;html=1;" parent="aRIGUOi0fo8cgqzadP1p-1" vertex="1">
          <mxGeometry y="30" width="140" height="30" as="geometry" />
        </mxCell>
        <mxCell id="aRIGUOi0fo8cgqzadP1p-5" value="Administrador" style="rounded=0;whiteSpace=wrap;html=1;" parent="1" vertex="1">
          <mxGeometry x="789.38" y="-708.75" width="138.75" height="30" as="geometry" />
        </mxCell>
        <mxCell id="aRIGUOi0fo8cgqzadP1p-11" value="Catalogo de Docentes" style="rounded=0;whiteSpace=wrap;html=1;" parent="1" vertex="1">
          <mxGeometry x="967.51" y="-788.75" width="141.25" height="30" as="geometry" />
        </mxCell>
        <mxCell id="aRIGUOi0fo8cgqzadP1p-12" value="Orientador Interno" style="rounded=0;whiteSpace=wrap;html=1;" parent="1" vertex="1">
          <mxGeometry x="877.51" y="-628.75" width="140.62" height="30" as="geometry" />
        </mxCell>
        <mxCell id="aRIGUOi0fo8cgqzadP1p-13" value="Arguente" style="whiteSpace=wrap;html=1;" parent="1" vertex="1">
          <mxGeometry x="1160" y="-660" width="140.62" height="31.25" as="geometry" />
        </mxCell>
        <mxCell id="aRIGUOi0fo8cgqzadP1p-15" value="Catalogo de Empresas" style="whiteSpace=wrap;html=1;" parent="1" vertex="1">
          <mxGeometry x="447.5" y="-788.75" width="142.5" height="30" as="geometry" />
        </mxCell>
        <mxCell id="aRIGUOi0fo8cgqzadP1p-16" value="Docente" style="rounded=0;whiteSpace=wrap;html=1;" parent="1" vertex="1">
          <mxGeometry x="967.51" y="-708.75" width="140.62" height="30" as="geometry" />
        </mxCell>
        <mxCell id="aRIGUOi0fo8cgqzadP1p-19" value="Empresa" style="whiteSpace=wrap;html=1;" parent="1" vertex="1">
          <mxGeometry x="447.5" y="-708.75" width="140" height="30" as="geometry" />
        </mxCell>
        <mxCell id="aRIGUOi0fo8cgqzadP1p-20" value="Orientador Externo" style="whiteSpace=wrap;html=1;" parent="1" vertex="1">
          <mxGeometry x="330" y="-648.75" width="142.5" height="30" as="geometry" />
        </mxCell>
        <mxCell id="aRIGUOi0fo8cgqzadP1p-21" value="Utilizador Empresarial" style="whiteSpace=wrap;html=1;" parent="1" vertex="1">
          <mxGeometry x="570" y="-648.75" width="140" height="30" as="geometry" />
        </mxCell>
        <mxCell id="aRIGUOi0fo8cgqzadP1p-22" value="Catalogo de Alunos" style="whiteSpace=wrap;html=1;" parent="1" vertex="1">
          <mxGeometry x="1386.25" y="-788.75" width="138.75" height="30" as="geometry" />
        </mxCell>
        <mxCell id="aRIGUOi0fo8cgqzadP1p-24" value="Aluno" style="swimlane;fontStyle=0;childLayout=stackLayout;horizontal=1;startSize=30;horizontalStack=0;resizeParent=1;resizeParentMax=0;resizeLast=0;collapsible=1;marginBottom=0;whiteSpace=wrap;html=1;" parent="1" vertex="1">
          <mxGeometry x="1385" y="-708.75" width="140" height="180" as="geometry" />
        </mxCell>
        <mxCell id="aRIGUOi0fo8cgqzadP1p-25" value="id" style="text;strokeColor=none;fillColor=none;align=left;verticalAlign=middle;spacingLeft=4;spacingRight=4;overflow=hidden;points=[[0,0.5],[1,0.5]];portConstraint=eastwest;rotatable=0;whiteSpace=wrap;html=1;" parent="aRIGUOi0fo8cgqzadP1p-24" vertex="1">
          <mxGeometry y="30" width="140" height="30" as="geometry" />
        </mxCell>
        <mxCell id="aRIGUOi0fo8cgqzadP1p-26" value="nome" style="text;strokeColor=none;fillColor=none;align=left;verticalAlign=middle;spacingLeft=4;spacingRight=4;overflow=hidden;points=[[0,0.5],[1,0.5]];portConstraint=eastwest;rotatable=0;whiteSpace=wrap;html=1;" parent="aRIGUOi0fo8cgqzadP1p-24" vertex="1">
          <mxGeometry y="60" width="140" height="30" as="geometry" />
        </mxCell>
        <mxCell id="aRIGUOi0fo8cgqzadP1p-27" value="media" style="text;strokeColor=none;fillColor=none;align=left;verticalAlign=middle;spacingLeft=4;spacingRight=4;overflow=hidden;points=[[0,0.5],[1,0.5]];portConstraint=eastwest;rotatable=0;whiteSpace=wrap;html=1;" parent="aRIGUOi0fo8cgqzadP1p-24" vertex="1">
          <mxGeometry y="90" width="140" height="30" as="geometry" />
        </mxCell>
        <mxCell id="aRIGUOi0fo8cgqzadP1p-28" value="mestrado" style="text;strokeColor=none;fillColor=none;align=left;verticalAlign=middle;spacingLeft=4;spacingRight=4;overflow=hidden;points=[[0,0.5],[1,0.5]];portConstraint=eastwest;rotatable=0;whiteSpace=wrap;html=1;" parent="aRIGUOi0fo8cgqzadP1p-24" vertex="1">
          <mxGeometry y="120" width="140" height="30" as="geometry" />
        </mxCell>
        <mxCell id="aRIGUOi0fo8cgqzadP1p-29" value="estado" style="text;strokeColor=none;fillColor=none;align=left;verticalAlign=middle;spacingLeft=4;spacingRight=4;overflow=hidden;points=[[0,0.5],[1,0.5]];portConstraint=eastwest;rotatable=0;whiteSpace=wrap;html=1;" parent="aRIGUOi0fo8cgqzadP1p-24" vertex="1">
          <mxGeometry y="150" width="140" height="30" as="geometry" />
        </mxCell>
        <mxCell id="aRIGUOi0fo8cgqzadP1p-31" value="Tema" style="swimlane;fontStyle=0;childLayout=stackLayout;horizontal=1;startSize=30;horizontalStack=0;resizeParent=1;resizeParentMax=0;resizeLast=0;collapsible=1;marginBottom=0;whiteSpace=wrap;html=1;" parent="1" vertex="1">
          <mxGeometry x="967.5100000000001" y="-500" width="140" height="150" as="geometry">
            <mxRectangle x="1150" y="898" width="70" height="30" as="alternateBounds" />
          </mxGeometry>
        </mxCell>
        <mxCell id="aRIGUOi0fo8cgqzadP1p-32" value="titulo" style="text;strokeColor=none;fillColor=none;align=left;verticalAlign=middle;spacingLeft=4;spacingRight=4;overflow=hidden;points=[[0,0.5],[1,0.5]];portConstraint=eastwest;rotatable=0;whiteSpace=wrap;html=1;" parent="aRIGUOi0fo8cgqzadP1p-31" vertex="1">
          <mxGeometry y="30" width="140" height="30" as="geometry" />
        </mxCell>
        <mxCell id="aRIGUOi0fo8cgqzadP1p-33" value="descricao" style="text;strokeColor=none;fillColor=none;align=left;verticalAlign=middle;spacingLeft=4;spacingRight=4;overflow=hidden;points=[[0,0.5],[1,0.5]];portConstraint=eastwest;rotatable=0;whiteSpace=wrap;html=1;" parent="aRIGUOi0fo8cgqzadP1p-31" vertex="1">
          <mxGeometry y="60" width="140" height="30" as="geometry" />
        </mxCell>
        <mxCell id="aRIGUOi0fo8cgqzadP1p-34" value="mestrados compativeis" style="text;strokeColor=none;fillColor=none;align=left;verticalAlign=middle;spacingLeft=4;spacingRight=4;overflow=hidden;points=[[0,0.5],[1,0.5]];portConstraint=eastwest;rotatable=0;whiteSpace=wrap;html=1;" parent="aRIGUOi0fo8cgqzadP1p-31" vertex="1">
          <mxGeometry y="90" width="140" height="30" as="geometry" />
        </mxCell>
        <mxCell id="aRIGUOi0fo8cgqzadP1p-35" value="renumeracao mensal" style="text;strokeColor=none;fillColor=none;align=left;verticalAlign=middle;spacingLeft=4;spacingRight=4;overflow=hidden;points=[[0,0.5],[1,0.5]];portConstraint=eastwest;rotatable=0;whiteSpace=wrap;html=1;" parent="aRIGUOi0fo8cgqzadP1p-31" vertex="1">
          <mxGeometry y="120" width="140" height="30" as="geometry" />
        </mxCell>
        <mxCell id="aRIGUOi0fo8cgqzadP1p-36" value="Proposta de Tese" style="html=1;whiteSpace=wrap;" parent="1" vertex="1">
          <mxGeometry x="648.76" y="-320" width="140.62" height="30" as="geometry" />
        </mxCell>
        <mxCell id="aRIGUOi0fo8cgqzadP1p-37" value="Dissertacao" style="html=1;whiteSpace=wrap;" parent="1" vertex="1">
          <mxGeometry x="768.76" y="-250" width="140.62" height="30" as="geometry" />
        </mxCell>
        <mxCell id="aRIGUOi0fo8cgqzadP1p-38" value="Projeto" style="html=1;whiteSpace=wrap;" parent="1" vertex="1">
          <mxGeometry x="529.38" y="-250" width="140.62" height="30" as="geometry" />
        </mxCell>
        <mxCell id="aRIGUOi0fo8cgqzadP1p-41" value="" style="endArrow=none;html=1;rounded=0;exitX=0.5;exitY=0;exitDx=0;exitDy=0;entryX=0.5;entryY=1;entryDx=0;entryDy=0;" parent="1" source="aRIGUOi0fo8cgqzadP1p-36" target="aRIGUOi0fo8cgqzadP1p-16" edge="1">
          <mxGeometry width="50" height="50" relative="1" as="geometry">
            <mxPoint x="420" y="-570" as="sourcePoint" />
            <mxPoint x="470" y="-620" as="targetPoint" />
            <Array as="points">
              <mxPoint x="719" y="-570" />
              <mxPoint x="1038" y="-570" />
            </Array>
          </mxGeometry>
        </mxCell>
        <mxCell id="5lh8dayub897Pbzogj64-68" value="1" style="edgeLabel;html=1;align=center;verticalAlign=middle;resizable=0;points=[];" vertex="1" connectable="0" parent="aRIGUOi0fo8cgqzadP1p-41">
          <mxGeometry x="0.9557" y="1" relative="1" as="geometry">
            <mxPoint x="13" y="-1" as="offset" />
          </mxGeometry>
        </mxCell>
        <mxCell id="5lh8dayub897Pbzogj64-72" value="*" style="edgeLabel;html=1;align=center;verticalAlign=middle;resizable=0;points=[];rotation=0;" vertex="1" connectable="0" parent="aRIGUOi0fo8cgqzadP1p-41">
          <mxGeometry x="-0.9486" relative="1" as="geometry">
            <mxPoint x="11" as="offset" />
          </mxGeometry>
        </mxCell>
        <mxCell id="5lh8dayub897Pbzogj64-73" value="orienta" style="edgeLabel;html=1;align=center;verticalAlign=middle;resizable=0;points=[];rotation=90;" vertex="1" connectable="0" parent="aRIGUOi0fo8cgqzadP1p-41">
          <mxGeometry x="-0.5329" relative="1" as="geometry">
            <mxPoint as="offset" />
          </mxGeometry>
        </mxCell>
        <mxCell id="aRIGUOi0fo8cgqzadP1p-50" value="" style="endArrow=block;endSize=16;endFill=0;html=1;rounded=0;entryX=0.5;entryY=1;entryDx=0;entryDy=0;exitX=0.5;exitY=0;exitDx=0;exitDy=0;" parent="1" source="aRIGUOi0fo8cgqzadP1p-37" target="aRIGUOi0fo8cgqzadP1p-36" edge="1">
          <mxGeometry width="160" relative="1" as="geometry">
            <mxPoint x="779.38" y="-155" as="sourcePoint" />
            <mxPoint x="728.38" y="-290" as="targetPoint" />
            <Array as="points">
              <mxPoint x="839.38" y="-260" />
              <mxPoint x="719.38" y="-260" />
            </Array>
          </mxGeometry>
        </mxCell>
        <mxCell id="aRIGUOi0fo8cgqzadP1p-51" value="" style="endArrow=block;endSize=16;endFill=0;html=1;rounded=0;entryX=0.5;entryY=1;entryDx=0;entryDy=0;exitX=0.5;exitY=0;exitDx=0;exitDy=0;" parent="1" source="aRIGUOi0fo8cgqzadP1p-38" target="aRIGUOi0fo8cgqzadP1p-36" edge="1">
          <mxGeometry width="160" relative="1" as="geometry">
            <mxPoint x="849.38" y="-240" as="sourcePoint" />
            <mxPoint x="729.38" y="-280" as="targetPoint" />
            <Array as="points">
              <mxPoint x="599.38" y="-260" />
              <mxPoint x="719.38" y="-260" />
            </Array>
          </mxGeometry>
        </mxCell>
        <mxCell id="aRIGUOi0fo8cgqzadP1p-54" value="" style="endArrow=none;html=1;rounded=0;exitX=0.5;exitY=0;exitDx=0;exitDy=0;entryX=0;entryY=0.5;entryDx=0;entryDy=0;" parent="1" source="aRIGUOi0fo8cgqzadP1p-20" target="aRIGUOi0fo8cgqzadP1p-19" edge="1">
          <mxGeometry width="50" height="50" relative="1" as="geometry">
            <mxPoint x="390" y="-658.75" as="sourcePoint" />
            <mxPoint x="440" y="-708.75" as="targetPoint" />
            <Array as="points">
              <mxPoint x="401" y="-693.75" />
            </Array>
          </mxGeometry>
        </mxCell>
        <mxCell id="5lh8dayub897Pbzogj64-80" value="representada por" style="edgeLabel;html=1;align=center;verticalAlign=middle;resizable=0;points=[];" vertex="1" connectable="0" parent="aRIGUOi0fo8cgqzadP1p-54">
          <mxGeometry x="-0.3541" y="-1" relative="1" as="geometry">
            <mxPoint as="offset" />
          </mxGeometry>
        </mxCell>
        <mxCell id="5lh8dayub897Pbzogj64-81" value="1" style="edgeLabel;html=1;align=center;verticalAlign=middle;resizable=0;points=[];" vertex="1" connectable="0" parent="aRIGUOi0fo8cgqzadP1p-54">
          <mxGeometry x="0.7211" y="2" relative="1" as="geometry">
            <mxPoint y="-14" as="offset" />
          </mxGeometry>
        </mxCell>
        <mxCell id="5lh8dayub897Pbzogj64-82" value="*" style="edgeLabel;html=1;align=center;verticalAlign=middle;resizable=0;points=[];" vertex="1" connectable="0" parent="aRIGUOi0fo8cgqzadP1p-54">
          <mxGeometry x="-0.7532" y="-1" relative="1" as="geometry">
            <mxPoint x="8" as="offset" />
          </mxGeometry>
        </mxCell>
        <mxCell id="aRIGUOi0fo8cgqzadP1p-55" value="" style="endArrow=none;html=1;rounded=0;exitX=0.5;exitY=0;exitDx=0;exitDy=0;entryX=1;entryY=0.5;entryDx=0;entryDy=0;" parent="1" source="aRIGUOi0fo8cgqzadP1p-21" target="aRIGUOi0fo8cgqzadP1p-19" edge="1">
          <mxGeometry width="50" height="50" relative="1" as="geometry">
            <mxPoint x="620" y="-668.75" as="sourcePoint" />
            <mxPoint x="670" y="-718.75" as="targetPoint" />
            <Array as="points">
              <mxPoint x="640" y="-693.75" />
            </Array>
          </mxGeometry>
        </mxCell>
        <mxCell id="aRIGUOi0fo8cgqzadP1p-60" value="" style="endArrow=none;html=1;rounded=0;exitX=0;exitY=0.5;exitDx=0;exitDy=0;entryX=0.5;entryY=1;entryDx=0;entryDy=0;" parent="1" source="aRIGUOi0fo8cgqzadP1p-38" target="aRIGUOi0fo8cgqzadP1p-20" edge="1">
          <mxGeometry width="50" height="50" relative="1" as="geometry">
            <mxPoint x="190" y="-400" as="sourcePoint" />
            <mxPoint x="240" y="-450" as="targetPoint" />
            <Array as="points">
              <mxPoint x="401" y="-235" />
            </Array>
          </mxGeometry>
        </mxCell>
        <mxCell id="5lh8dayub897Pbzogj64-77" value="orienta" style="edgeLabel;html=1;align=center;verticalAlign=middle;resizable=0;points=[];rotation=90;" vertex="1" connectable="0" parent="aRIGUOi0fo8cgqzadP1p-60">
          <mxGeometry x="0.1934" y="-1" relative="1" as="geometry">
            <mxPoint as="offset" />
          </mxGeometry>
        </mxCell>
        <mxCell id="5lh8dayub897Pbzogj64-78" value="0..1" style="edgeLabel;html=1;align=center;verticalAlign=middle;resizable=0;points=[];" vertex="1" connectable="0" parent="aRIGUOi0fo8cgqzadP1p-60">
          <mxGeometry x="0.8726" relative="1" as="geometry">
            <mxPoint x="19" y="-4" as="offset" />
          </mxGeometry>
        </mxCell>
        <mxCell id="5lh8dayub897Pbzogj64-79" value="*" style="edgeLabel;html=1;align=center;verticalAlign=middle;resizable=0;points=[];" vertex="1" connectable="0" parent="aRIGUOi0fo8cgqzadP1p-60">
          <mxGeometry x="-0.9089" y="-3" relative="1" as="geometry">
            <mxPoint x="4" y="-12" as="offset" />
          </mxGeometry>
        </mxCell>
        <mxCell id="aRIGUOi0fo8cgqzadP1p-61" value="" style="endArrow=none;html=1;rounded=0;entryX=0.515;entryY=1;entryDx=0;entryDy=0;exitX=0.5;exitY=0;exitDx=0;exitDy=0;entryPerimeter=0;" parent="1" source="aRIGUOi0fo8cgqzadP1p-31" target="aRIGUOi0fo8cgqzadP1p-19" edge="1">
          <mxGeometry width="50" height="50" relative="1" as="geometry">
            <mxPoint x="180" y="-300" as="sourcePoint" />
            <mxPoint x="230" y="-350" as="targetPoint" />
            <Array as="points">
              <mxPoint x="1038" y="-550" />
              <mxPoint x="520" y="-550" />
            </Array>
          </mxGeometry>
        </mxCell>
        <mxCell id="aRIGUOi0fo8cgqzadP1p-62" value="" style="endArrow=none;html=1;rounded=0;exitX=1;exitY=0.5;exitDx=0;exitDy=0;entryX=0.889;entryY=1;entryDx=0;entryDy=0;entryPerimeter=0;" parent="1" source="aRIGUOi0fo8cgqzadP1p-36" target="aRIGUOi0fo8cgqzadP1p-29" edge="1">
          <mxGeometry width="50" height="50" relative="1" as="geometry">
            <mxPoint x="550" y="-490" as="sourcePoint" />
            <mxPoint x="600" y="-540" as="targetPoint" />
            <Array as="points">
              <mxPoint x="1509" y="-305" />
            </Array>
          </mxGeometry>
        </mxCell>
        <mxCell id="5lh8dayub897Pbzogj64-74" value="entrega" style="edgeLabel;html=1;align=center;verticalAlign=middle;resizable=0;points=[];" vertex="1" connectable="0" parent="aRIGUOi0fo8cgqzadP1p-62">
          <mxGeometry x="-0.2475" y="-1" relative="1" as="geometry">
            <mxPoint as="offset" />
          </mxGeometry>
        </mxCell>
        <mxCell id="5lh8dayub897Pbzogj64-75" value="1" style="edgeLabel;html=1;align=center;verticalAlign=middle;resizable=0;points=[];" vertex="1" connectable="0" parent="aRIGUOi0fo8cgqzadP1p-62">
          <mxGeometry x="0.9428" y="1" relative="1" as="geometry">
            <mxPoint x="12" as="offset" />
          </mxGeometry>
        </mxCell>
        <mxCell id="5lh8dayub897Pbzogj64-76" value="1" style="edgeLabel;html=1;align=center;verticalAlign=middle;resizable=0;points=[];" vertex="1" connectable="0" parent="aRIGUOi0fo8cgqzadP1p-62">
          <mxGeometry x="-0.9333" relative="1" as="geometry">
            <mxPoint x="-11" y="-15" as="offset" />
          </mxGeometry>
        </mxCell>
        <mxCell id="wX2YtLCmFYZKP23IaHDT-2" value="" style="endArrow=none;html=1;rounded=0;entryX=0.75;entryY=1;entryDx=0;entryDy=0;exitX=0.75;exitY=0;exitDx=0;exitDy=0;" parent="1" source="aRIGUOi0fo8cgqzadP1p-31" target="aRIGUOi0fo8cgqzadP1p-16" edge="1">
          <mxGeometry width="50" height="50" relative="1" as="geometry">
            <mxPoint x="860" y="-540" as="sourcePoint" />
            <mxPoint x="330" y="-700" as="targetPoint" />
            <Array as="points" />
          </mxGeometry>
        </mxCell>
        <mxCell id="5lh8dayub897Pbzogj64-69" value="1" style="edgeLabel;html=1;align=center;verticalAlign=middle;resizable=0;points=[];" vertex="1" connectable="0" parent="wX2YtLCmFYZKP23IaHDT-2">
          <mxGeometry x="0.7763" y="-3" relative="1" as="geometry">
            <mxPoint x="14" y="-5" as="offset" />
          </mxGeometry>
        </mxCell>
        <mxCell id="5lh8dayub897Pbzogj64-70" value="*" style="edgeLabel;html=1;align=center;verticalAlign=middle;resizable=0;points=[];" vertex="1" connectable="0" parent="wX2YtLCmFYZKP23IaHDT-2">
          <mxGeometry x="-0.7622" y="-2" relative="1" as="geometry">
            <mxPoint x="15" as="offset" />
          </mxGeometry>
        </mxCell>
        <mxCell id="5lh8dayub897Pbzogj64-71" value="propõe" style="edgeLabel;html=1;align=center;verticalAlign=middle;resizable=0;points=[];rotation=90;" vertex="1" connectable="0" parent="wX2YtLCmFYZKP23IaHDT-2">
          <mxGeometry x="0.0615" y="2" relative="1" as="geometry">
            <mxPoint x="9" y="15" as="offset" />
          </mxGeometry>
        </mxCell>
        <mxCell id="wX2YtLCmFYZKP23IaHDT-3" value="" style="endArrow=none;html=1;rounded=0;entryX=1;entryY=0.5;entryDx=0;entryDy=0;exitX=0.59;exitY=1.014;exitDx=0;exitDy=0;exitPerimeter=0;" parent="1" source="aRIGUOi0fo8cgqzadP1p-29" target="aRIGUOi0fo8cgqzadP1p-33" edge="1">
          <mxGeometry width="50" height="50" relative="1" as="geometry">
            <mxPoint x="500" y="-370" as="sourcePoint" />
            <mxPoint x="260" y="-420" as="targetPoint" />
            <Array as="points">
              <mxPoint x="1468" y="-425" />
            </Array>
          </mxGeometry>
        </mxCell>
        <mxCell id="5lh8dayub897Pbzogj64-92" value="escolhe" style="edgeLabel;html=1;align=center;verticalAlign=middle;resizable=0;points=[];" vertex="1" connectable="0" parent="wX2YtLCmFYZKP23IaHDT-3">
          <mxGeometry x="-0.1189" relative="1" as="geometry">
            <mxPoint x="-1" as="offset" />
          </mxGeometry>
        </mxCell>
        <mxCell id="5lh8dayub897Pbzogj64-93" value="*" style="edgeLabel;html=1;align=center;verticalAlign=middle;resizable=0;points=[];" vertex="1" connectable="0" parent="wX2YtLCmFYZKP23IaHDT-3">
          <mxGeometry x="-0.9156" y="1" relative="1" as="geometry">
            <mxPoint x="-19" as="offset" />
          </mxGeometry>
        </mxCell>
        <mxCell id="5lh8dayub897Pbzogj64-94" value="1..5" style="edgeLabel;html=1;align=center;verticalAlign=middle;resizable=0;points=[];" vertex="1" connectable="0" parent="wX2YtLCmFYZKP23IaHDT-3">
          <mxGeometry x="0.8405" y="1" relative="1" as="geometry">
            <mxPoint x="-15" y="-16" as="offset" />
          </mxGeometry>
        </mxCell>
        <mxCell id="wX2YtLCmFYZKP23IaHDT-4" value="Catalogo de Salas" style="whiteSpace=wrap;html=1;" parent="1" vertex="1">
          <mxGeometry x="1851.25" y="-790" width="138.75" height="30" as="geometry" />
        </mxCell>
        <mxCell id="wX2YtLCmFYZKP23IaHDT-5" value="Sala" style="swimlane;fontStyle=0;childLayout=stackLayout;horizontal=1;startSize=30;horizontalStack=0;resizeParent=1;resizeParentMax=0;resizeLast=0;collapsible=1;marginBottom=0;whiteSpace=wrap;html=1;" parent="1" vertex="1">
          <mxGeometry x="1850" y="-710" width="140" height="90" as="geometry" />
        </mxCell>
        <mxCell id="wX2YtLCmFYZKP23IaHDT-6" value="horarios" style="text;strokeColor=none;fillColor=none;align=left;verticalAlign=middle;spacingLeft=4;spacingRight=4;overflow=hidden;points=[[0,0.5],[1,0.5]];portConstraint=eastwest;rotatable=0;whiteSpace=wrap;html=1;" parent="wX2YtLCmFYZKP23IaHDT-5" vertex="1">
          <mxGeometry y="30" width="140" height="30" as="geometry" />
        </mxCell>
        <mxCell id="wX2YtLCmFYZKP23IaHDT-7" value="numero" style="text;strokeColor=none;fillColor=none;align=left;verticalAlign=middle;spacingLeft=4;spacingRight=4;overflow=hidden;points=[[0,0.5],[1,0.5]];portConstraint=eastwest;rotatable=0;whiteSpace=wrap;html=1;" parent="wX2YtLCmFYZKP23IaHDT-5" vertex="1">
          <mxGeometry y="60" width="140" height="30" as="geometry" />
        </mxCell>
        <mxCell id="5lh8dayub897Pbzogj64-58" value="" style="endArrow=diamondThin;endFill=1;endSize=24;html=1;rounded=0;entryX=0.246;entryY=1;entryDx=0;entryDy=0;entryPerimeter=0;exitX=0.5;exitY=0;exitDx=0;exitDy=0;" edge="1" parent="1" source="aRIGUOi0fo8cgqzadP1p-11" target="aRIGUOi0fo8cgqzadP1p-2">
          <mxGeometry width="160" relative="1" as="geometry">
            <mxPoint x="970" y="-830" as="sourcePoint" />
            <mxPoint x="1130" y="-830" as="targetPoint" />
            <Array as="points">
              <mxPoint x="1038" y="-830" />
              <mxPoint x="1221" y="-830" />
            </Array>
          </mxGeometry>
        </mxCell>
        <mxCell id="5lh8dayub897Pbzogj64-60" value="" style="endArrow=diamondThin;endFill=1;endSize=24;html=1;rounded=0;entryX=0.496;entryY=1;entryDx=0;entryDy=0;entryPerimeter=0;exitX=0.5;exitY=0;exitDx=0;exitDy=0;" edge="1" parent="1" source="aRIGUOi0fo8cgqzadP1p-22" target="aRIGUOi0fo8cgqzadP1p-2">
          <mxGeometry width="160" relative="1" as="geometry">
            <mxPoint x="1460" y="-800" as="sourcePoint" />
            <mxPoint x="1260" y="-890" as="targetPoint" />
            <Array as="points">
              <mxPoint x="1456" y="-800" />
              <mxPoint x="1256" y="-800" />
            </Array>
          </mxGeometry>
        </mxCell>
        <mxCell id="5lh8dayub897Pbzogj64-61" value="" style="endArrow=diamondThin;endFill=1;endSize=24;html=1;rounded=0;exitX=0.5;exitY=0;exitDx=0;exitDy=0;entryX=0.746;entryY=1;entryDx=0;entryDy=0;entryPerimeter=0;" edge="1" parent="1" source="wX2YtLCmFYZKP23IaHDT-4" target="aRIGUOi0fo8cgqzadP1p-2">
          <mxGeometry width="160" relative="1" as="geometry">
            <mxPoint x="1370" y="-270" as="sourcePoint" />
            <mxPoint x="1530" y="-270" as="targetPoint" />
            <Array as="points">
              <mxPoint x="1921" y="-820" />
              <mxPoint x="1290" y="-820" />
            </Array>
          </mxGeometry>
        </mxCell>
        <mxCell id="5lh8dayub897Pbzogj64-65" value="" style="endArrow=block;endSize=16;endFill=0;html=1;rounded=0;entryX=0.25;entryY=1;entryDx=0;entryDy=0;exitX=0.5;exitY=0;exitDx=0;exitDy=0;" edge="1" parent="1" source="aRIGUOi0fo8cgqzadP1p-12" target="aRIGUOi0fo8cgqzadP1p-16">
          <mxGeometry width="160" relative="1" as="geometry">
            <mxPoint x="518.75" y="-898.75" as="sourcePoint" />
            <mxPoint x="637.75" y="-938.75" as="targetPoint" />
            <Array as="points">
              <mxPoint x="948.13" y="-648.75" />
              <mxPoint x="1003.13" y="-648.75" />
            </Array>
          </mxGeometry>
        </mxCell>
        <mxCell id="5lh8dayub897Pbzogj64-66" value="" style="endArrow=block;endSize=16;endFill=0;html=1;rounded=0;entryX=1;entryY=0.5;entryDx=0;entryDy=0;exitX=0.5;exitY=0;exitDx=0;exitDy=0;" edge="1" parent="1" source="aRIGUOi0fo8cgqzadP1p-13" target="aRIGUOi0fo8cgqzadP1p-16">
          <mxGeometry width="160" relative="1" as="geometry">
            <mxPoint x="1148.13" y="-717.5" as="sourcePoint" />
            <mxPoint x="1203.13" y="-767.5" as="targetPoint" />
            <Array as="points">
              <mxPoint x="1230" y="-694" />
            </Array>
          </mxGeometry>
        </mxCell>
        <mxCell id="5lh8dayub897Pbzogj64-67" value="" style="endArrow=block;endSize=16;endFill=0;html=1;rounded=0;exitX=1;exitY=0.5;exitDx=0;exitDy=0;entryX=0;entryY=0.5;entryDx=0;entryDy=0;" edge="1" parent="1" source="aRIGUOi0fo8cgqzadP1p-5" target="aRIGUOi0fo8cgqzadP1p-16">
          <mxGeometry width="160" relative="1" as="geometry">
            <mxPoint x="651.89" y="-918.75" as="sourcePoint" />
            <mxPoint x="758.13" y="-938.75" as="targetPoint" />
            <Array as="points" />
          </mxGeometry>
        </mxCell>
        <mxCell id="5lh8dayub897Pbzogj64-83" value="" style="endArrow=none;html=1;rounded=0;entryX=0.5;entryY=1;entryDx=0;entryDy=0;exitX=0;exitY=0.5;exitDx=0;exitDy=0;" edge="1" parent="1" source="aRIGUOi0fo8cgqzadP1p-33" target="aRIGUOi0fo8cgqzadP1p-21">
          <mxGeometry width="50" height="50" relative="1" as="geometry">
            <mxPoint x="610" y="-420" as="sourcePoint" />
            <mxPoint x="660" y="-470" as="targetPoint" />
            <Array as="points">
              <mxPoint x="640" y="-425" />
            </Array>
          </mxGeometry>
        </mxCell>
        <mxCell id="5lh8dayub897Pbzogj64-84" value="propõe" style="edgeLabel;html=1;align=center;verticalAlign=middle;resizable=0;points=[];rotation=90;" vertex="1" connectable="0" parent="5lh8dayub897Pbzogj64-83">
          <mxGeometry x="0.5012" y="3" relative="1" as="geometry">
            <mxPoint x="3" as="offset" />
          </mxGeometry>
        </mxCell>
        <mxCell id="5lh8dayub897Pbzogj64-85" value="1" style="edgeLabel;html=1;align=center;verticalAlign=middle;resizable=0;points=[];" vertex="1" connectable="0" parent="5lh8dayub897Pbzogj64-83">
          <mxGeometry x="0.8648" y="-4" relative="1" as="geometry">
            <mxPoint x="6" y="-6" as="offset" />
          </mxGeometry>
        </mxCell>
        <mxCell id="5lh8dayub897Pbzogj64-86" value="1..*" style="edgeLabel;html=1;align=center;verticalAlign=middle;resizable=0;points=[];" vertex="1" connectable="0" parent="5lh8dayub897Pbzogj64-83">
          <mxGeometry x="-0.8342" y="-2" relative="1" as="geometry">
            <mxPoint x="6" y="-13" as="offset" />
          </mxGeometry>
        </mxCell>
        <mxCell id="5lh8dayub897Pbzogj64-87" value="" style="endArrow=diamondThin;endFill=1;endSize=24;html=1;rounded=0;exitX=0.5;exitY=0;exitDx=0;exitDy=0;entryX=-0.004;entryY=0.083;entryDx=0;entryDy=0;entryPerimeter=0;" edge="1" parent="1" source="aRIGUOi0fo8cgqzadP1p-15" target="aRIGUOi0fo8cgqzadP1p-2">
          <mxGeometry width="160" relative="1" as="geometry">
            <mxPoint x="570" y="-919" as="sourcePoint" />
            <mxPoint x="1160" y="-980" as="targetPoint" />
            <Array as="points">
              <mxPoint x="519" y="-920" />
            </Array>
          </mxGeometry>
        </mxCell>
        <mxCell id="5lh8dayub897Pbzogj64-88" value="" style="endArrow=diamondThin;endFill=1;endSize=24;html=1;rounded=0;entryX=0.5;entryY=1;entryDx=0;entryDy=0;exitX=0.5;exitY=0;exitDx=0;exitDy=0;" edge="1" parent="1" source="wX2YtLCmFYZKP23IaHDT-5" target="wX2YtLCmFYZKP23IaHDT-4">
          <mxGeometry width="160" relative="1" as="geometry">
            <mxPoint x="1750" y="-410" as="sourcePoint" />
            <mxPoint x="1910" y="-410" as="targetPoint" />
          </mxGeometry>
        </mxCell>
        <mxCell id="5lh8dayub897Pbzogj64-89" value="" style="endArrow=diamondThin;endFill=1;endSize=24;html=1;rounded=0;entryX=0.5;entryY=1;entryDx=0;entryDy=0;exitX=0.5;exitY=0;exitDx=0;exitDy=0;" edge="1" parent="1" source="aRIGUOi0fo8cgqzadP1p-24" target="aRIGUOi0fo8cgqzadP1p-22">
          <mxGeometry width="160" relative="1" as="geometry">
            <mxPoint x="1633.75" y="-720" as="sourcePoint" />
            <mxPoint x="1634.75" y="-770" as="targetPoint" />
          </mxGeometry>
        </mxCell>
        <mxCell id="5lh8dayub897Pbzogj64-90" value="" style="endArrow=diamondThin;endFill=1;endSize=24;html=1;rounded=0;entryX=0.5;entryY=1;entryDx=0;entryDy=0;exitX=0.5;exitY=0;exitDx=0;exitDy=0;" edge="1" parent="1" source="aRIGUOi0fo8cgqzadP1p-16" target="aRIGUOi0fo8cgqzadP1p-11">
          <mxGeometry width="160" relative="1" as="geometry">
            <mxPoint x="1229.69" y="-720" as="sourcePoint" />
            <mxPoint x="1230.69" y="-770" as="targetPoint" />
          </mxGeometry>
        </mxCell>
        <mxCell id="5lh8dayub897Pbzogj64-91" value="" style="endArrow=diamondThin;endFill=1;endSize=24;html=1;rounded=0;exitX=0.5;exitY=0;exitDx=0;exitDy=0;entryX=0.5;entryY=1;entryDx=0;entryDy=0;" edge="1" parent="1" source="aRIGUOi0fo8cgqzadP1p-19" target="aRIGUOi0fo8cgqzadP1p-15">
          <mxGeometry width="160" relative="1" as="geometry">
            <mxPoint x="780" y="-770" as="sourcePoint" />
            <mxPoint x="780" y="-820" as="targetPoint" />
          </mxGeometry>
        </mxCell>
      </root>
    </mxGraphModel>
  </diagram>
</mxfile>
